inDegrees=yes
name=ik_S42_A06_T01
DataType=double
version=3
OpenSimVersion=4.3-2021-08-27-4bc7ad9
endheader
time	pelvis_tilt	pelvis_list	pelvis_rotation	pelvis_tx	pelvis_ty	pelvis_tz	hip_flexion_r	hip_adduction_r	hip_rotation_r	knee_angle_r	knee_angle_r_beta	ankle_angle_r	subtalar_angle_r	mtp_angle_r	hip_flexion_l	hip_adduction_l	hip_rotation_l	knee_angle_l	knee_angle_l_beta	ankle_angle_l	subtalar_angle_l	mtp_angle_l	lumbar_extension	lumbar_bending	lumbar_rotation	arm_flex_r	arm_add_r	arm_rot_r	elbow_flex_r	pro_sup_r	wrist_flex_r	wrist_dev_r	arm_flex_l	arm_add_l	arm_rot_l	elbow_flex_l	pro_sup_l	wrist_flex_l	wrist_dev_l
0	0	0	0	0	0.9399999999999999	0	0	0	0	0	0	0	0	0	0	0	0	0	0	0	0	0	0	0	0	0	0	0	0	89.99999999963507	0	0	0	0	0	0	89.99999999869995	0	0
0.02	-8.421628323266548	-1.722714423818219	23.12108683734367	0	0.9399999999999999	0	3.836960764534431	-1.789569804574031	-1.290898828428018	5.877355320673554	0.1025792016553607	0	0	0	3.836960764534431	-1.789569804574031	-1.290898828428018	5.877355320673554	0.1025792016553607	0	0	0	-5.596121778640115	-2.750480171327457	3.384170820165878	33.73575626084344	-1.657417434367625	6.524122338953386	51.05041201435176	134.6400291911619	0	0	30.43280059309213	0.5416572576839559	9.909329901018928	49.87341944051341	117.5859390018569	0	0
0.04	-7.419943548528142	-2.024781866825333	22.4591795168636	0	0.9399999999999999	0	31.58006387706689	-13.47108246016813	-9.928811231376613	44.12576238598024	0.7701398385880242	0	0	0	31.58006387706689	-13.47108246016813	-9.928811231376613	44.12576238598024	0.7701398385880242	0	0	0	-6.392534588352357	-2.154162455837523	4.133731062489577	33.76545498224201	-1.68913246649504	6.550676049795378	51.07552095511767	134.6170796382459	0	0	30.45251289294394	0.5517211611794042	9.902078880158612	49.82384415992395	117.5282650038319	0	0
0.06	-7.425006116791645	-2.025063748205635	22.45000916197203	0	0.9399999999999999	0	31.60785798037887	-13.44841031990624	-9.929120083093339	44.14108172894154	0.7704072115619411	0	0	0	31.60785798037887	-13.44841031990624	-9.929120083093339	44.14108172894154	0.7704072115619411	0	0	0	-6.399010373783695	-2.148493379327167	4.132634765745287	33.77300357716668	-1.717909111082361	6.55821026966021	51.0974607580966	134.6027513381044	0	0	30.45424610761751	0.5683361493014226	9.93112548471756	49.83460302117853	117.4459311416547	0	0
0.08	-7.4283562299777	-2.029234290184403	22.44668781595206	0	0.9399999999999999	0	31.65092576584555	-13.41787191154245	-9.929565264432105	44.1653276761493	0.7708303831709812	0	0	0	31.65092576584555	-13.41787191154245	-9.929565264432105	44.1653276761493	0.7708303831709812	0	0	0	-6.406704622187424	-2.143180945551372	4.118162175090233	33.80612025102273	-1.76413780987237	6.623715038562454	51.15171576045862	134.5276799458572	0	0	30.46035911503835	0.5574646942072483	9.929594397531936	49.86883155427262	117.3779387351575	0	0
0.1	-7.4366195421938	-2.030271382877893	22.47007029404202	0	0.9399999999999999	0	31.65087522192755	-13.41358075947792	-9.929595619695922	44.16483253531543	0.7708217413331692	0	0	0	31.65087522192755	-13.41358075947792	-9.929595619695922	44.16483253531543	0.7708217413331692	0	0	0	-6.414673858742323	-2.14105163900562	4.117797534785768	33.83260835655285	-1.791315620231051	6.682548019914142	51.11544534360365	134.5573975442387	0	0	30.46413926268034	0.5499937991993662	9.868863766119357	49.8235673567848	117.4546358859403	0	0
0.12	-7.44178384020097	-2.030166898616436	22.48495489906274	0	0.9399999999999999	0	31.66795793092248	-13.39924268775631	-9.92978785887958	44.17421735240637	0.7709855372911033	0	0	0	31.66795793092248	-13.39924268775631	-9.92978785887958	44.17421735240637	0.7709855372911033	0	0	0	-6.420618673513282	-2.135689138473829	4.11022039062911	33.83517978198515	-1.802735420831533	6.749679620841823	51.1303982413863	134.5114595609909	0	0	30.4686682514921	0.5623975659141802	9.878757354509242	49.81003492404314	117.4990620992857	0	0
0.14	-7.438563673424228	-2.024207099474618	22.49836071702367	0	0.9399999999999999	0	31.66500188514553	-13.40057092306315	-9.929762545748938	44.17253338491218	0.7709561465138332	0	0	0	31.66500188514553	-13.40057092306315	-9.929762545748938	44.17253338491218	0.7709561465138332	0	0	0	-6.415256062201807	-2.131634581766558	4.108695135231495	33.82584479947723	-1.796841587233751	6.777102828436831	51.12404264470639	134.5498987773513	0	0	30.45236382610818	0.5674792991623809	9.887971901126793	49.78381526437742	117.5566521863619	0	0
0.16	-7.439039076161137	-2.021169851175091	22.4795512888646	0	0.9399999999999999	0	31.67225701105583	-13.3939837860414	-9.929848012297388	44.17650219954325	0.7710254153965468	0	0	0	31.67225701105583	-13.3939837860414	-9.929848012297388	44.17650219954325	0.7710254153965468	0	0	0	-6.414985078880315	-2.127664233230328	4.10900041590129	33.82182206945965	-1.788283330124247	6.769452827432409	51.13254969450643	134.588968970998	0	0	30.4238982792447	0.588574803016636	9.951238899927375	49.77125127144615	117.5899406662922	0	0
0.18	-7.433262552456351	-2.017875532679786	22.47348678485007	0	0.9399999999999999	0	31.66319380953947	-13.40132400306099	-9.929748141082952	44.17162553098632	0.7709403014736997	0	0	0	31.66319380953947	-13.40132400306099	-9.929748141082952	44.17162553098632	0.7709403014736997	0	0	0	-6.40724790470033	-2.130504679031519	4.128371421328271	33.82277983877831	-1.779647481257125	6.736652972770328	51.1110835225626	134.6708297430764	0	0	30.38398024970864	0.6090269931835501	10.02985226913904	49.72815396973233	117.6659252938472	0	0
0.2	-7.432130833638735	-2.013716597166499	22.47264898131089	0	0.9399999999999999	0	31.66562676666025	-13.39761971978152	-9.929788144541275	44.17285754513251	0.7709618041769819	0	0	0	31.66562676666025	-13.39761971978152	-9.929788144541275	44.17285754513251	0.7709618041769819	0	0	0	-6.404261682620925	-2.128797047372929	4.144374244279811	33.81908134287515	-1.786369895121787	6.682262900417062	51.106159637358	134.7757025970275	0	0	30.38268561562846	0.6091068053272407	10.10436357870853	49.72542428522609	117.6519393434561	0	0
0.22	-7.432247853686458	-2.01562733718481	22.46378872549545	0	0.9399999999999999	0	31.65884200743163	-13.40086962837293	-9.929729761880164	44.16896626350893	0.7708938885005282	0	0	0	31.65884200743163	-13.40086962837293	-9.929729761880164	44.16896626350893	0.7708938885005282	0	0	0	-6.404219636655488	-2.133422236894395	4.159684681418923	33.82324328697945	-1.790065143596258	6.612870003792594	51.09235970859574	134.9072593828107	0	0	30.38207118290228	0.5940609240417599	10.19843632396856	49.67221855066543	117.7054594559676	0	0
0.24	-7.432877255249513	-2.003417429942413	22.46592034621456	0	0.9399999999999999	0	31.66989646221642	-13.39112414462628	-9.92985807653351	44.17503152065427	0.7709997472076944	0	0	0	31.66989646221642	-13.39112414462628	-9.92985807653351	44.17503152065427	0.7709997472076944	0	0	0	-6.400333216708328	-2.122380128015444	4.17603467432656	33.80754417573065	-1.803166477283197	6.568863626135222	51.10283351537061	134.9595610126502	0	0	30.37838671973297	0.6283206162433249	10.2777974038802	49.65749082034897	117.670713666689	0	0
0.26	-7.432328932420917	-2.000767555122399	22.45453515617204	0	0.9399999999999999	0	31.70778553128083	-13.36609892947579	-9.930236330627771	44.19665132441926	0.7713770839670285	0	0	0	31.70778553128083	-13.36609892947579	-9.930236330627771	44.19665132441926	0.7713770839670285	0	0	0	-6.400889239022839	-2.115808437878853	4.18454923766554	33.80383260163774	-1.81803975458376	6.592182412651539	51.13395389634101	134.9267604046317	0	0	30.3679355808164	0.6255915972268968	10.38500149982131	49.64954016412945	117.5387579325615	0	0
0.28	-7.428994896316485	-2.001659413773378	22.4378669476709	0	0.9399999999999999	0	31.75729771464391	-13.3350731296527	-9.930718202161376	44.22511219444601	0.7718738198569776	0	0	0	31.75729771464391	-13.3350731296527	-9.930718202161376	44.22511219444601	0.7718738198569776	0	0	0	-6.400622190124087	-2.113004557315114	4.201587761402499	33.79666673160009	-1.837217270166764	6.611053416495169	51.16431632685367	134.885317314337	0	0	30.37151276533202	0.59321602682508	10.52060301579359	49.62517445293218	117.2942764520754	0	0
0.3	-7.444478725275072	-1.970812458384825	22.46595506454903	0	0.9399999999999999	0	31.76046460478252	-13.33241962708857	-9.930753628963121	44.22687225072325	0.7719045386340359	0	0	0	31.76046460478252	-13.33241962708857	-9.930753628963121	44.22687225072325	0.7719045386340359	0	0	0	-6.40125044904658	-2.08732966318328	4.276826092176681	33.80596808810602	-1.961013664017054	6.545881011804683	51.13508651703314	134.8643226375097	0	0	30.51620531021974	0.5868734185125227	10.80294550610703	49.53491653710543	116.7884665269086	0	0
0.32	-7.444537352940413	-1.970143178698013	22.47385825590172	0	0.9399999999999999	0	31.76475421001502	-13.32877556676871	-9.93080204004943	44.2292237493438	0.7719455800273204	0	0	0	31.76475421001502	-13.32877556676871	-9.93080204004943	44.2292237493438	0.7719455800273204	0	0	0	-6.400916114478545	-2.088069706926679	4.291667575701784	33.81192802532978	-1.988168549500628	6.522568962573219	51.15481185587885	134.8030558574447	0	0	30.80618414115008	0.394191564145794	10.98109097726286	49.41709878284914	116.3126627694251	0	0
0.34	-7.442003452594332	-1.957764126894595	22.51754147927192	0	0.9399999999999999	0	31.76990970767609	-13.3243929972573	-9.930860257029655	44.23204593004374	0.7719948363726207	0	0	0	31.76990970767609	-13.3243929972573	-9.930860257029655	44.23204593004374	0.7719948363726207	0	0	0	-6.393550736789865	-2.080431456484995	4.320574454401839	33.78370978587738	-2.038859782848002	6.474237866448674	51.15591512797235	134.7373916729275	0	0	31.07713396774518	0.1584854732105871	11.28174215805019	49.32844879958672	115.5883485167882	0	0
0.36	-7.429737633957924	-1.942611683510645	22.6250036861538	0	0.9399999999999999	0	31.77723159107092	-13.31813052442873	-9.930943279310382	44.23602538188522	0.7720642909096791	0	0	0	31.77723159107092	-13.31813052442873	-9.930943279310382	44.23602538188522	0.7720642909096791	0	0	0	-6.376565556146576	-2.071687665773162	4.33265661010719	33.74074528714395	-2.109130189103128	6.371999455823002	51.15322647359122	134.6807988671222	0	0	31.43890339296516	-0.106707754529387	11.47877537760513	49.26215478406958	114.914333180666	0	0
